HIERARCHY
ROOT SpineBase
{
  OFFSET 0.000000 0.000000 0.000000
  CHANNELS 6 Xposition Yposition Zposition Zrotation Xrotation Yrotation
  JOINT SpineMid
  {
    OFFSET 0.000000 34.436193 0.000000
    CHANNELS 3 Zrotation Xrotation Yrotation
    JOINT SpineShoulder
    {
      OFFSET -0.149866 25.622513 -0.805711
      CHANNELS 3 Zrotation Xrotation Yrotation
      JOINT Neck
      {
        OFFSET -0.119689 8.494858 -0.581817
        CHANNELS 3 Zrotation Xrotation Yrotation
        JOINT Head
        {
          OFFSET -0.044106 11.785365 1.696576
          CHANNELS 3 Zrotation Xrotation Yrotation
          End Site
          {
            OFFSET 0 0 0
          }
        }
      }
      JOINT ShoulderLeft
      {
        OFFSET -15.763212 -6.372951 -8.020681
        CHANNELS 3 Zrotation Xrotation Yrotation
        JOINT ElbowLeft
        {
          OFFSET -4.795125 -28.919825 1.713383
          CHANNELS 3 Zrotation Xrotation Yrotation
          JOINT WristLeft
          {
            OFFSET -2.850392 -23.217938 4.302420
            CHANNELS 3 Zrotation Xrotation Yrotation
            JOINT HandLeft
            {
              OFFSET 1.502587 -1.863286 -0.206850
              CHANNELS 3 Zrotation Xrotation Yrotation
              JOINT HandTipLeft
              {
                OFFSET -0.325095 -6.556950 0.013663
                CHANNELS 3 Zrotation Xrotation Yrotation
                End Site
                {
                  OFFSET 0 0 0
                }
              }
              JOINT ThumbLeft
              {
                OFFSET -3.649305 -0.601648 -2.763630
                CHANNELS 3 Zrotation Xrotation Yrotation
                End Site
                {
                  OFFSET 0 0 0
                }
              }
            }
          }
        }
      }
      JOINT ShoulderRight
      {
        OFFSET 15.614244 -5.670511 -3.302484
        CHANNELS 3 Zrotation Xrotation Yrotation
        JOINT ElbowRight
        {
          OFFSET 4.517380 -28.603342 5.388832
          CHANNELS 3 Zrotation Xrotation Yrotation
          JOINT WristRight
          {
            OFFSET 0.230499 -22.159133 8.120148
            CHANNELS 3 Zrotation Xrotation Yrotation
            JOINT HandRight
            {
              OFFSET 1.659171 -6.559855 -0.409471
              CHANNELS 3 Zrotation Xrotation Yrotation
              JOINT HandTipRight
              {
                OFFSET 0.499421 -0.920132 0.377763
                CHANNELS 3 Zrotation Xrotation Yrotation
                End Site
                {
                  OFFSET 0 0 0
                }
              }
              JOINT ThumbRight
              {
                OFFSET 0.031293 -0.320361 -1.182278
                CHANNELS 3 Zrotation Xrotation Yrotation
                End Site
                {
                  OFFSET 0 0 0
                }
              }
            }
          }
        }
      }
    }
  }
  JOINT HipLeft
  {
    OFFSET -7.592810 1.458739 -3.873029
    CHANNELS 3 Zrotation Xrotation Yrotation
    JOINT KneeLeft
    {
      OFFSET -2.381055 -29.903592 -2.393649
      CHANNELS 3 Zrotation Xrotation Yrotation
      JOINT AnkleLeft
      {
        OFFSET 0.587569 -34.626130 -2.464876
        CHANNELS 3 Zrotation Xrotation Yrotation
        JOINT FootLeft
        {
          OFFSET 0.866996 -2.662184 -12.257123
          CHANNELS 3 Zrotation Xrotation Yrotation
          End Site
          {
            OFFSET 0 0 0
          }
        }
      }
    }
  }
  JOINT HipRight
  {
    OFFSET 6.100589 1.341976 -2.470053
    CHANNELS 3 Zrotation Xrotation Yrotation
    JOINT KneeRight
    {
      OFFSET 3.433096 -33.729103 -1.360576
      CHANNELS 3 Zrotation Xrotation Yrotation
      JOINT AnkleRight
      {
        OFFSET 0.370412 -34.406751 -2.733668
        CHANNELS 3 Zrotation Xrotation Yrotation
        JOINT FootRight
        {
          OFFSET -0.684942 -4.535931 -5.156099
          CHANNELS 3 Zrotation Xrotation Yrotation
          End Site
          {
            OFFSET 0 0 0
          }
        }
      }
    }
  }
}
MOTION
Frames: 5
Frame Time: 0.033333
64.110802 71.329809 270.359645 -0.000000 0.000000 -5.849906 -0.000000 0.000000 5.849906 -0.000000 0.000000 0.000000 -0.000000 0.000000 0.000000 0.000000 0.000000 0.000000 -0.000000 0.000000 0.000000 -0.000000 0.000000 0.000000 -0.000000 0.000000 0.000000 -0.000000 0.000000 0.000000 0.000000 0.000000 0.000000 0.000000 0.000000 0.000000 -0.000000 0.000000 0.000000 -0.000000 0.000000 0.000000 -0.000000 0.000000 0.000000 -0.000000 0.000000 0.000000 0.000000 0.000000 0.000000 0.000000 0.000000 0.000000 -0.000000 0.000000 5.849906 -0.000000 0.000000 0.000000 -0.000000 0.000000 0.000000 0.000000 0.000000 0.000000 -0.000000 0.000000 5.849906 -0.000000 0.000000 0.000000 -0.000000 0.000000 0.000000 0.000000 0.000000 0.000000
64.123479 71.332376 270.353577 -0.019943 0.001257 -5.877123 0.019967 0.000791 5.877123 -0.000000 0.000000 0.000000 -0.000000 0.000000 0.000000 0.000000 0.000000 0.000000 -0.000000 0.000000 0.000000 -0.000000 0.000000 0.000000 0.512666 0.830634 0.606538 -1.072922 2.265615 -0.761239 0.000000 0.000000 0.000000 0.000000 0.000000 0.000000 -0.000000 0.000000 0.000000 -0.000000 0.000000 0.000000 -1.379200 4.153229 1.187920 -0.014430 -3.070587 -1.131137 0.000000 0.000000 0.000000 0.000000 0.000000 0.000000 0.019967 0.000791 5.877123 -0.000000 0.000000 0.000000 -0.000000 0.000000 0.000000 0.000000 0.000000 0.000000 0.019967 0.000791 5.877123 -0.000000 0.000000 0.000000 -1.274282 -12.155404 3.581779 0.000000 0.000000 0.000000
64.135423 71.334242 270.348685 -0.036794 0.002082 -5.898108 0.036813 0.001710 5.898108 -0.000000 0.000000 0.000000 -0.000000 0.000000 0.000000 0.000000 0.000000 0.000000 -0.000000 0.000000 0.000000 -0.205492 -1.163713 0.102489 0.962361 2.741679 1.050264 -1.711381 4.197797 -1.458998 0.000000 0.000000 0.000000 0.000000 0.000000 0.000000 -0.000000 0.000000 0.000000 0.468692 0.748031 0.176889 -3.281356 7.513828 2.255136 0.392815 -6.185877 -2.115677 0.000000 0.000000 0.000000 0.000000 0.000000 0.000000 0.036813 0.001710 5.898108 -0.000000 0.000000 0.000000 -0.000000 0.000000 0.000000 0.000000 0.000000 0.000000 0.036813 0.001710 5.898108 -0.000000 0.000000 0.000000 -1.771671 -20.752285 6.111100 0.000000 0.000000 0.000000
64.146631 71.335407 270.344969 -0.050546 0.002472 -5.912851 0.050532 0.002748 5.912851 -0.000000 0.000000 0.000000 -0.000000 0.000000 0.000000 0.000000 0.000000 0.000000 -0.000000 0.000000 0.000000 -0.276413 -1.620237 0.143377 1.008971 3.865496 1.534376 -1.909683 5.618004 -2.092828 0.000000 0.000000 0.000000 0.000000 0.000000 0.000000 -0.000000 0.000000 0.000000 0.660692 1.126505 0.248213 -4.920662 11.004335 3.460700 1.062983 -9.085356 -2.832953 0.000000 0.000000 0.000000 0.000000 0.000000 0.000000 0.050532 0.002748 5.912851 -0.000000 0.000000 0.000000 -0.000000 0.000000 0.000000 0.000000 0.000000 0.000000 0.050532 0.002748 5.912851 -0.000000 0.000000 0.000000 -1.924558 -24.184228 7.213908 0.000000 0.000000 0.000000
64.157105 71.335872 270.342429 -0.061195 0.002428 -5.921345 0.061119 0.003898 5.921344 -0.000000 0.000000 0.000000 -0.000000 0.000000 0.000000 0.000000 0.000000 0.000000 -0.000000 0.000000 0.000000 -0.326274 -1.992806 0.177904 0.768765 4.825598 2.011359 -1.670818 6.380001 -2.661733 0.000000 0.000000 0.000000 0.000000 0.000000 0.000000 -0.000000 0.000000 0.000000 0.824599 1.507768 0.308475 -6.454800 14.066087 4.620484 1.923583 -11.489565 -3.146906 0.000000 0.000000 0.000000 0.000000 0.000000 0.000000 0.061119 0.003898 5.921344 -0.000000 0.000000 0.000000 -0.000000 0.000000 0.000000 0.000000 0.000000 0.000000 0.061119 0.003898 5.921344 -0.000000 0.000000 0.000000 -2.002264 -22.121188 6.741424 0.000000 0.000000 0.000000
